<svg xmlns="http://www.w3.org/2000/svg" viewBox="0 0 64 64">
  <!-- 背景 -->
  <rect width="64" height="64" rx="12" fill="#0f1724"/>
  
  <!-- キーボードのキー（3x3グリッド） -->
  <g opacity="0.4">
    <!-- 上段 -->
    <rect x="12" y="14" width="10" height="10" rx="2" fill="#7dd3fc" opacity="0.3"/>
    <rect x="27" y="14" width="10" height="10" rx="2" fill="#7dd3fc" opacity="0.3"/>
    <rect x="42" y="14" width="10" height="10" rx="2" fill="#7dd3fc" opacity="0.3"/>
    
    <!-- 中段 -->
    <rect x="12" y="27" width="10" height="10" rx="2" fill="#7dd3fc" opacity="0.3"/>
    <rect x="27" y="27" width="10" height="10" rx="2" fill="#7dd3fc" opacity="0.5"/>
    <rect x="42" y="27" width="10" height="10" rx="2" fill="#7dd3fc" opacity="0.3"/>
    
    <!-- 下段 -->
    <rect x="12" y="40" width="10" height="10" rx="2" fill="#7dd3fc" opacity="0.3"/>
    <rect x="27" y="40" width="10" height="10" rx="2" fill="#7dd3fc" opacity="0.3"/>
    <rect x="42" y="40" width="10" height="10" rx="2" fill="#7dd3fc" opacity="0.3"/>
  </g>
  
  <!-- パスワード経路（歩きパターン） -->
  <path d="M 17 19 L 32 19 L 47 32 L 32 45" 
        stroke="#7dd3fc" 
        stroke-width="3" 
        stroke-linecap="round" 
        stroke-linejoin="round"
        fill="none"
        opacity="0.9"/>
  
  <!-- 開始点 -->
  <circle cx="17" cy="19" r="3.5" fill="#22c55e"/>
  
  <!-- 経路上の点 -->
  <circle cx="32" cy="19" r="2.5" fill="#7dd3fc"/>
  <circle cx="47" cy="32" r="2.5" fill="#7dd3fc"/>
  <circle cx="32" cy="45" r="2.5" fill="#7dd3fc"/>
  
  <!-- 分析シンボル（小さな虫眼鏡風） -->
  <g transform="translate(46, 46)">
    <circle cx="0" cy="0" r="5" stroke="#7dd3fc" stroke-width="1.5" fill="none" opacity="0.8"/>
    <line x1="3.5" y1="3.5" x2="7" y2="7" stroke="#7dd3fc" stroke-width="1.5" stroke-linecap="round" opacity="0.8"/>
  </g>
</svg>